<svg width="70" height="80" viewBox="0 0 70 80" fill="none" xmlns="http://www.w3.org/2000/svg">
<path d="M14.5382 0C10.5436 0 7.59111 5.01674 7.72489 10.453C7.84933 15.6795 7.68444 22.4459 6.496 27.967C5.30444 33.5014 3.29156 37.0096 0 37.4604V42.5396C3.29156 42.9904 5.30444 46.4985 6.496 52.033C7.68444 57.5497 7.84933 64.3205 7.72178 69.5425C7.59111 74.9833 10.5436 80 14.5413 80H55.4649C59.4596 80 62.4151 74.9833 62.2844 69.5425C62.1569 64.3205 62.3218 57.5497 63.5071 52.033C64.7018 46.4985 66.7116 42.9904 70 42.5396V37.4604C66.7084 37.0096 64.7018 33.5014 63.5071 27.967C62.3218 22.4503 62.1569 15.6795 62.2844 10.453C62.4151 5.01674 59.4596 0 55.4649 0H14.5382ZM47.4569 49.2435C47.4569 56.7329 43.5649 61.2765 37.1031 61.2765H26.1022C25.9463 61.2771 25.7918 61.2335 25.6477 61.1483C25.5035 61.0631 25.3725 60.938 25.2621 60.78C25.1517 60.622 25.0641 60.4344 25.0043 60.2278C24.9445 60.0212 24.9138 59.7997 24.9138 59.576V20.424C24.9138 20.2003 24.9445 19.9788 25.0043 19.7722C25.0641 19.5656 25.1517 19.378 25.2621 19.22C25.3725 19.062 25.5035 18.9369 25.6477 18.8517C25.7918 18.7665 25.9463 18.7229 26.1022 18.7235H37.0378C42.4262 18.7235 45.9636 22.9101 45.9636 29.3417C45.9636 33.8496 43.5836 37.8933 40.5533 38.5985V38.8351C44.6787 39.4823 47.4569 43.584 47.4569 49.2435ZM35.9022 24.1152H29.6302V36.8266H34.9129C38.9978 36.8266 41.2471 34.47 41.2471 30.2522C41.2471 26.3022 39.312 24.1196 35.9022 24.1196V24.1152ZM29.6302 41.8701V55.8804H36.1324C40.3853 55.8804 42.6347 53.43 42.6347 48.8284C42.6347 44.2312 40.3231 41.8701 35.8587 41.8701H29.6302Z" fill="white"/>
</svg>
