<svg width="70" height="80" viewBox="0 0 54 94" fill="none" xmlns="http://www.w3.org/2000/svg">
<path d="M2.56281 3.10352V0C2.3213 0.000199996 2.08244 0.0895092 1.86133 0.262279C1.64023 0.435049 1.4417 0.687519 1.27829 1.00372C1.11489 1.31992 0.990169 1.69298 0.912021 2.09929C0.833873 2.5056 0.803997 2.93632 0.824284 3.36421L2.56281 3.10352ZM51.4371 3.10352L53.1756 3.36421C53.1959 2.93632 53.166 2.5056 53.0878 2.09929C53.0097 1.69298 52.885 1.31992 52.7216 1.00372C52.5582 0.687519 52.3596 0.435049 52.1385 0.262279C51.9174 0.0895092 51.6786 0.000199996 51.4371 0V3.10352ZM47.946 77.5879L48.4976 80.53C48.8217 80.3377 49.1069 79.9806 49.3179 79.5028C49.5289 79.0251 49.6564 78.4477 49.6846 77.8424L47.946 77.5879ZM26.9999 90.002L26.4484 92.9441C26.8064 93.1566 27.1935 93.1566 27.5515 92.9441L26.9999 90.002ZM6.05383 77.5879L4.3153 77.8424C4.34351 78.4477 4.47101 79.0251 4.682 79.5028C4.89298 79.9806 5.17818 80.3377 5.50225 80.53L6.05383 77.5879ZM37.473 21.7246H39.2185V18.6211H37.473V21.7246ZM37.473 58.9668L38.0246 61.9089L39.2185 61.2013V58.9668H37.473ZM26.9999 65.1738L26.4484 68.116L26.9999 68.4449L27.5515 68.116L26.9999 65.1738ZM16.5269 58.9668H14.7814V61.2013L15.9753 61.9089L16.5269 58.9668ZM2.56281 6.20703H51.4371V0L2.56281 0V6.20703ZM49.6985 2.84282L46.2075 77.3272L49.6846 77.8424L53.1756 3.36421L49.6985 2.84282ZM47.3945 74.6458L26.4484 87.0598L27.5515 92.9441L48.4976 80.53L47.3945 74.6458ZM27.5515 87.0598L6.60541 74.6458L5.50225 80.53L26.4484 92.9441L27.5515 87.0598ZM7.79236 77.3334L4.30134 2.84903L0.824284 3.36421L4.3153 77.8424L7.79236 77.3334ZM37.473 18.6211H14.7814V24.8281H37.473V18.6211ZM21.7634 43.4492H37.473V37.2422H21.7634V43.4492ZM35.7275 40.3457V58.9668H39.2185V40.3457H35.7275ZM36.9214 56.0247L26.4484 62.2317L27.5515 68.116L38.0246 61.9089L36.9214 56.0247ZM27.5515 62.2317L17.0785 56.0247L15.9753 61.9089L26.4484 68.116L27.5515 62.2317ZM18.2724 58.9668V49.6563H14.7814V58.9668H18.2724ZM35.7275 21.7246V40.3457H39.2185V21.7246H35.7275Z" fill="white"/>
</svg>
