<svg width="70" height="80" viewBox="0 0 58 95" fill="none" xmlns="http://www.w3.org/2000/svg">
<path d="M56.4434 43.1179L31.3222 2.07129C30.9782 1.50893 30.5699 1.06282 30.1204 0.75846C29.6709 0.454096 29.1891 0.29744 28.7026 0.29744C28.216 0.29744 27.7342 0.454096 27.2847 0.75846C26.8353 1.06282 26.4269 1.50893 26.0829 2.07129L20.8688 10.5921L27.4853 21.4046C28.2657 20.9693 29.1052 20.9011 29.9081 21.2081C30.7109 21.515 31.4449 22.1846 32.026 23.1405C32.6072 24.0964 33.0122 25.3 33.1949 26.614C33.3775 27.928 33.3305 29.2994 33.059 30.5718L39.4346 40.9966C40.3779 40.4538 41.4061 40.4522 42.35 40.9919C43.2939 41.5316 44.0972 42.5805 44.6276 43.9659C45.1581 45.3513 45.384 46.9905 45.2682 48.6138C45.1524 50.237 44.7018 51.7474 43.9907 52.8963C43.2707 54.08 42.3216 54.8186 41.3054 54.9858C40.2892 55.153 39.2691 54.7384 38.4192 53.8129C37.5693 52.8875 36.9423 51.5085 36.6455 49.9115C36.3486 48.3146 36.4003 46.5988 36.7916 45.0571L30.8475 35.3376V60.9175C31.751 61.6484 32.474 62.8632 32.8958 64.3595C33.3177 65.8558 33.413 67.5432 33.1658 69.1404C32.9187 70.7376 32.3441 72.1482 31.5377 73.1369C30.7313 74.1257 29.7419 74.633 28.7344 74.5741C27.7269 74.5153 26.7622 73.894 26.001 72.8138C25.2399 71.7335 24.7282 70.2596 24.5515 68.6376C24.3747 67.0157 24.5434 65.3437 25.0295 63.9004C25.5156 62.4571 26.2897 61.3297 27.2228 60.706V34.891C26.6845 34.5305 26.1951 33.9994 25.7829 33.3284C25.3708 32.6574 25.044 31.8597 24.8213 30.9813C24.5987 30.1029 24.4847 29.1612 24.4858 28.2104C24.4869 27.2597 24.6032 26.3187 24.8279 25.4417L18.3085 14.7819L1.08398 42.9299C0.389866 44.0658 0 45.6055 0 47.2108C0 48.8162 0.389866 50.3559 1.08398 51.4918L26.2052 92.5443C26.5491 93.1067 26.9575 93.5528 27.407 93.8572C27.8565 94.1615 28.3383 94.3182 28.8248 94.3182C29.3114 94.3182 29.7931 94.1615 30.2426 93.8572C30.6921 93.5528 31.1005 93.1067 31.4445 92.5443L56.447 51.6857C56.7916 51.1235 57.0651 50.4558 57.2517 49.7207C57.4382 48.9856 57.5342 48.1976 57.5342 47.4018C57.5342 46.606 57.4382 45.818 57.2517 45.083C57.0651 44.3479 56.7916 43.6801 56.447 43.1179" fill="white"/>
</svg>
