<svg width="70" height="80" viewBox="0 0 70 80" fill="none" xmlns="http://www.w3.org/2000/svg">
<path d="M2.33232 2.66672V0C2.00946 0.000171848 1.69015 0.0769116 1.39458 0.225366C1.09901 0.37382 0.833609 0.590757 0.61517 0.862457C0.39673 1.13416 0.230003 1.45471 0.125534 1.80383C0.0210647 2.15296 -0.0188729 2.52306 0.00824706 2.89073L2.33232 2.66672ZM67.6677 2.66672L69.9918 2.89073C70.0189 2.52306 69.9789 2.15296 69.8745 1.80383C69.77 1.45471 69.6033 1.13416 69.3848 0.862457C69.1664 0.590757 68.901 0.37382 68.6054 0.225366C68.3098 0.0769116 67.9905 0.000171848 67.6677 0V2.66672ZM63.0009 66.6681L63.7382 69.1962C64.1714 69.0309 64.5527 68.724 64.8347 68.3135C65.1168 67.903 65.2872 67.4069 65.3249 66.8868L63.0009 66.6681ZM35 77.335L34.2626 79.8631C34.7412 80.0456 35.2588 80.0456 35.7374 79.8631L35 77.335ZM6.99913 66.6681L4.67506 66.8868C4.71277 67.4069 4.88321 67.903 5.16526 68.3135C5.44731 68.724 5.82856 69.0309 6.26177 69.1962L6.99913 66.6681ZM20.9996 18.6671V16.0003H18.6662V18.6671H20.9996ZM20.9996 34.6674H18.6662V37.3341H20.9996V34.6674ZM49.0004 34.6674H51.3338V32.0007H49.0004V34.6674ZM49.0004 50.6678L49.7378 53.1958L51.3338 52.5878V50.6678H49.0004ZM35 56.0012L34.2626 58.5293L35 58.8119L35.7374 58.5293L35 56.0012ZM20.9996 50.6678H18.6662V52.5878L20.2622 53.1958L20.9996 50.6678ZM2.33232 5.33345H67.6677V0L2.33232 0V5.33345ZM65.3436 2.44272L60.6768 66.4441L65.3249 66.8868L69.9918 2.89073L65.3436 2.44272ZM62.2635 64.1401L34.2626 74.807L35.7374 79.8631L63.7382 69.1962L62.2635 64.1401ZM35.7374 74.807L7.73649 64.1401L6.26177 69.1962L34.2626 79.8631L35.7374 74.807ZM9.3232 66.4494L4.65639 2.44805L0.00824706 2.89073L4.67506 66.8868L9.3232 66.4494ZM51.3338 16.0003H20.9996V21.3338H51.3338V16.0003ZM18.6662 18.6671V34.6674H23.333V18.6671H18.6662ZM20.9996 37.3341H49.0004V32.0007H20.9996V37.3341ZM46.667 34.6674V50.6678H51.3338V34.6674H46.667ZM48.2631 48.1397L34.2626 53.4732L35.7374 58.5293L49.7378 53.1958L48.2631 48.1397ZM35.7374 53.4732L21.7369 48.1397L20.2622 53.1958L34.2626 58.5293L35.7374 53.4732ZM23.333 50.6678V42.6676H18.6662V50.6678H23.333Z" fill="white"/>
</svg>
