<svg width="22" height="22" viewBox="0 0 22 22" fill="none" xmlns="http://www.w3.org/2000/svg">
<path d="M16 1H6C3.23858 1 1 3.23858 1 6V16C1 18.7614 3.23858 21 6 21H16C18.7614 21 21 18.7614 21 16V6C21 3.23858 18.7614 1 16 1Z" stroke="white" stroke-width="2" stroke-linecap="round" stroke-linejoin="round"/>
<path d="M14.9995 10.37C15.1229 11.2022 14.9807 12.0522 14.5932 12.799C14.2057 13.5458 13.5926 14.1514 12.8411 14.5297C12.0896 14.9079 11.2379 15.0396 10.4072 14.9059C9.57659 14.7723 8.80922 14.3801 8.2143 13.7852C7.61938 13.1902 7.2272 12.4229 7.09353 11.5922C6.95987 10.7615 7.09153 9.90989 7.46979 9.15837C7.84805 8.40685 8.45365 7.79374 9.20045 7.40624C9.94725 7.01874 10.7972 6.87658 11.6295 7C12.4784 7.12588 13.2643 7.52146 13.8712 8.1283C14.478 8.73515 14.8736 9.52107 14.9995 10.37Z" stroke="white" stroke-width="2" stroke-linecap="round" stroke-linejoin="round"/>
<path d="M16.498 5.5H16.5048" stroke="white" stroke-width="2" stroke-linecap="round" stroke-linejoin="round"/>
</svg>
