<svg width="70" height="80" viewBox="0 0 58 95" fill="none" xmlns="http://www.w3.org/2000/svg">
<mask id="mask0_7_166" style="mask-type:luminance" maskUnits="userSpaceOnUse" x="0" y="0" width="58" height="95">
<path d="M0 0H57.5343V94.0207H0V0Z" fill="white"/>
</mask>
<g mask="url(#mask0_7_166)">
<path fill-rule="evenodd" clip-rule="evenodd" d="M0 0H57.5343V94.0207H0V0ZM43.9825 78.8207C41.3144 78.8207 39.8065 76.5485 38.6486 73.4537L34.2545 77.6259C35.8414 82.75 39.0849 86.6597 44.1072 86.6597C49.2421 86.6597 53.0658 82.3034 53.0658 74.3469C53.0658 66.9702 50.4719 63.6912 45.8788 60.4671L44.5267 59.523C42.2062 57.8776 41.2017 56.8081 41.2017 54.1559C41.2017 52.0131 42.2086 50.3716 43.7908 50.3716C45.3418 50.3716 46.3414 51.4411 47.2692 54.1559L51.4788 49.7409C49.6976 44.6207 47.2284 42.6658 43.7908 42.6658C38.9627 42.6658 35.8726 47.7116 35.8726 54.3401C35.8726 61.5287 38.4616 64.9331 42.3644 67.6479L43.7164 68.596C46.1832 70.3588 47.6527 71.4322 47.6527 74.4605C47.6527 76.9912 46.2216 78.8207 43.9825 78.8207ZM23.0305 78.7619C21.1726 78.7619 20.3983 76.6857 19.5497 74.2176L15.1483 78.5739C16.4236 82.985 18.9312 86.644 23.2582 86.644C28.0503 86.644 31.3322 82.4797 31.3322 73.3322V43.1673H25.9264V73.2147C25.9264 77.6298 24.8045 78.7619 23.0281 78.7619H23.0305Z" fill="white"/>
</g>
</svg>
