<svg width="70" height="80" viewBox="0 0 83 95" fill="none" xmlns="http://www.w3.org/2000/svg">
<path d="M56.4737 0C56.2627 0 56.0604 0.151008 55.9113 0.419807C55.7621 0.688605 55.6783 1.05318 55.6783 1.43331V27.6964L52.3747 24.223C52.1708 24.0057 51.9382 23.891 51.7013 23.891C51.4644 23.891 51.2318 24.0057 51.0278 24.223L43.0897 32.5649C42.8867 32.776 42.7182 33.0797 42.6009 33.4453C42.4836 33.8109 42.4218 34.2257 42.4216 34.648V51.3508C42.4216 52.2108 42.6761 53.0039 43.0897 53.4339L51.0278 61.7758C51.2318 61.9931 51.4644 62.1078 51.7013 62.1078C51.9382 62.1078 52.1708 61.9931 52.3747 61.7758L60.3129 53.4339C60.5158 53.2228 60.6844 52.9192 60.8017 52.5535C60.9189 52.1879 60.9808 51.7731 60.981 51.3508V5.87659C60.9803 5.45991 60.9193 5.05077 60.804 4.68961C60.6887 4.32846 60.523 4.02781 60.3235 3.81739L56.8688 0.195886C56.7498 0.0693078 56.6145 0.00172263 56.4764 0H56.4737ZM30.4905 23.8981C30.2541 23.8976 30.0217 24.0097 29.8171 24.223L21.8789 32.5649C21.676 32.776 21.5074 33.0797 21.3901 33.4453C21.2729 33.8109 21.211 34.2257 21.2108 34.648V51.3508C21.2108 52.2108 21.4653 53.0039 21.8789 53.4339L29.8171 61.7758C30.2333 62.2058 30.745 62.2058 31.1639 61.7758L39.1021 53.4339C39.305 53.2228 39.4736 52.9192 39.5909 52.5535C39.7081 52.1879 39.77 51.7731 39.7702 51.3508V34.648C39.7705 34.2255 39.7089 33.8103 39.5916 33.4445C39.4743 33.0787 39.3054 32.7753 39.1021 32.5649L31.1639 24.223C30.9593 24.0097 30.7269 23.8976 30.4905 23.8981ZM72.9121 23.8981C72.6755 23.896 72.4429 24.0082 72.2386 24.223L64.3005 32.5649C64.0975 32.776 63.929 33.0797 63.8117 33.4453C63.6944 33.8109 63.6326 34.2257 63.6323 34.648V51.3508C63.6323 52.2108 63.8869 53.0039 64.3005 53.4339L72 61.8188C72.2035 62.0413 72.4366 62.1606 72.6746 62.164C72.9127 62.1673 73.1468 62.0547 73.3522 61.8379L77.1383 57.8724C77.2274 57.7779 77.3012 57.6431 77.3525 57.4814C77.4038 57.3196 77.4308 57.1366 77.4308 56.9503C77.4308 56.7641 77.4038 56.581 77.3525 56.4193C77.3012 56.2576 77.2274 56.1228 77.1383 56.0282L68.935 47.3185V38.7472L72.9121 34.5763L76.8891 38.7472V44.7194C76.8891 45.5173 77.2603 45.6415 77.5095 45.3739C78.8498 43.9638 80.1914 42.5576 81.5342 41.1552C81.734 40.9452 81.8998 40.6446 82.0151 40.2834C82.1305 39.9221 82.1914 39.5128 82.1918 39.096V34.6527C82.1921 34.2303 82.1305 33.8151 82.0131 33.4493C81.8958 33.0835 81.727 32.7801 81.5236 32.5697L73.5855 24.2278C73.381 24.0136 73.1486 23.9014 72.9121 23.9029V23.8981ZM9.27972 23.9077C9.04315 23.9055 8.8106 24.0177 8.60627 24.2326L0.66814 32.5649C0.464948 32.778 0.29632 33.0833 0.179081 33.4505C0.0618431 33.8177 9.52675e-05 34.2339 0 34.6575V55.9805C0 57.022 0.625718 57.667 1.12417 57.1462L4.64516 53.453C4.84513 53.2422 5.01102 52.9408 5.12636 52.5787C5.24171 52.2167 5.3025 51.8066 5.3027 51.3891V38.7616L9.27972 34.5811L13.2567 38.7616V51.3891C13.2571 51.8058 13.318 52.2152 13.4334 52.5764C13.5487 52.9376 13.7145 53.2382 13.9143 53.4483L17.4353 57.1462C17.5489 57.2656 17.6781 57.3288 17.8097 57.3295C17.9413 57.3301 18.0706 57.2682 18.1847 57.1499C18.2987 57.0317 18.3934 56.8613 18.4592 56.6559C18.525 56.4506 18.5596 56.2176 18.5594 55.9805V34.6575C18.5593 34.2339 18.4976 33.8177 18.3804 33.4505C18.2631 33.0833 18.0945 32.778 17.8913 32.5649L9.95316 24.2326C9.74883 24.0177 9.51628 23.9055 9.27972 23.9077ZM51.7013 34.5715L55.6783 38.752V47.2468L51.7013 51.4273L47.7243 47.2468V38.7472L51.7013 34.5667V34.5715ZM72.9121 38.2408L70.6399 40.6297V45.3978L72.9121 47.7771L75.1843 45.3978V40.6297L72.9121 38.2408ZM40.8467 57.323C40.5712 57.3202 40.3 57.4452 40.0592 57.6861L32.6036 65.4547C32.3637 65.6998 32.1643 66.0555 32.0259 66.4854C31.8875 66.9153 31.8151 67.4039 31.8162 67.9008V83.4093C31.8162 84.4078 32.1264 85.3491 32.6036 85.8555L34.5656 87.8717C35.5068 88.7078 35.8542 88.7078 36.281 88.7078C37.6863 88.7078 38.487 87.1933 38.487 84.5177V69.1956C38.4877 69.1434 38.4826 69.0914 38.472 69.0427C38.4614 68.9941 38.4454 68.9498 38.4252 68.9124C38.4049 68.875 38.3807 68.8453 38.354 68.825C38.3273 68.8047 38.2986 68.7943 38.2696 68.7943H37.3257C37.2666 68.7943 37.21 68.8366 37.1682 68.9118C37.1264 68.9871 37.103 69.0892 37.103 69.1956V84.5177C37.103 85.6787 36.4216 86.8731 35.3106 85.8746L33.2691 83.7533C33.2358 83.7155 33.2082 83.6634 33.1888 83.6017C33.1694 83.5401 33.1587 83.4707 33.1578 83.3997V67.8913C33.1578 67.7527 33.1949 67.5903 33.2718 67.5186L40.7274 59.774C40.7631 59.7384 40.8032 59.7198 40.844 59.7198C40.8848 59.7198 40.925 59.7384 40.9607 59.774L48.4242 67.5139C48.5011 67.5903 48.5382 67.7288 48.5382 67.8913V83.3997C48.538 83.4741 48.5275 83.5472 48.5076 83.6123C48.4877 83.6774 48.459 83.7324 48.4242 83.7724L40.9607 91.5457C40.925 91.5813 40.8848 91.5999 40.844 91.5999C40.8032 91.5999 40.7631 91.5813 40.7274 91.5457L38.8237 89.5009C38.7707 89.4531 38.6911 89.4292 38.6407 89.477C38.2918 89.8801 37.9135 90.1936 37.5166 90.4087C37.3867 90.4803 37.2117 90.6236 37.5855 90.9963L40.0592 93.6479C40.3011 93.8851 40.5713 94.013 40.8467 94.0206C41.121 94.0256 41.3904 93.8897 41.6235 93.6288L49.0817 85.8555C49.3217 85.6104 49.5211 85.2546 49.6595 84.8247C49.7979 84.3948 49.8702 83.9063 49.8692 83.4093V67.9008C49.8657 67.4055 49.7914 66.9202 49.6535 66.4917C49.5156 66.0632 49.3186 65.706 49.0817 65.4547L41.6235 57.6909C41.3868 57.4489 41.1188 57.3237 40.8467 57.3278V57.323ZM52.4781 64.48C52.2901 64.4806 52.104 64.548 51.9304 64.6782C51.7569 64.8085 51.5992 64.999 51.4665 65.239C51.1985 65.7238 51.0483 66.3805 51.049 67.0648C51.0497 67.749 51.2013 68.4047 51.4703 68.8877C51.7393 69.3706 52.1037 69.6412 52.4834 69.6399C52.8631 69.6387 53.227 69.3656 53.495 68.8809C53.763 68.3962 53.9132 67.7394 53.9125 67.0552C53.9118 66.3709 53.7603 65.7152 53.4913 65.2323C53.2223 64.7493 52.8578 64.4787 52.4781 64.48ZM52.4622 64.8909C53.1357 64.8909 53.6818 65.8464 53.6818 67.0552C53.677 67.6354 53.547 68.1894 53.3193 68.5997C53.0916 69.01 52.7842 69.2443 52.4622 69.2529C52.142 69.2466 51.8363 69.0117 51.6121 68.5997C51.3879 68.1876 51.2636 67.6322 51.2665 67.0552C51.2654 66.7712 51.2956 66.4897 51.3552 66.2269C51.4149 65.9641 51.5028 65.7252 51.614 65.524C51.7252 65.3227 51.8574 65.1632 52.003 65.0545C52.1486 64.9459 52.3046 64.8903 52.4622 64.8909ZM51.9399 65.5932V68.4933H52.2448V67.3371H52.5312C52.6478 67.3371 52.6743 67.4231 52.7008 67.5855C52.7008 67.6094 52.7486 68.3643 52.7618 68.5028H53.0932C53.0512 68.251 53.0254 67.9913 53.0163 67.7289C52.9792 67.3562 52.9686 67.0982 52.7486 67.0743C52.8652 67.0026 53.0588 66.8928 53.0588 66.3576C53.0588 65.5884 52.6876 65.5932 52.494 65.5932H51.9399ZM52.2448 66.0567H52.5046C52.5842 66.0567 52.738 66.0567 52.738 66.4484C52.738 66.6109 52.6982 66.8784 52.4887 66.8689H52.2448V66.0567ZM42.8458 68.4264C40.7167 68.4264 39.4521 70.0652 39.4521 72.7598C39.4521 75.7124 40.7194 76.5007 42.7583 76.8686C45.1975 77.3129 45.3884 77.9436 45.3884 78.8036C45.3884 80.3133 44.715 80.9392 43.1401 80.9392C41.1648 80.9392 40.7327 80.0601 40.5895 78.2924C40.5762 78.1013 40.4834 77.9627 40.3668 77.9627H39.3964C39.3674 77.9627 39.3387 77.9731 39.3119 77.9934C39.2852 78.0137 39.261 78.0434 39.2407 78.0808C39.2205 78.1182 39.2046 78.1625 39.194 78.2112C39.1834 78.2598 39.1783 78.3118 39.179 78.364C39.179 80.6191 39.863 83.3185 43.1268 83.3185C45.521 83.3185 46.8758 81.6463 46.8758 78.7128C46.8758 75.808 45.7888 75.034 43.4927 74.475C41.1701 73.916 40.9395 73.6341 40.9395 72.6547C40.9395 71.8425 41.1304 70.777 42.8484 70.777C44.3809 70.777 44.9536 71.3838 45.1869 73.2423C45.2134 73.4334 45.285 73.5433 45.3884 73.5433H46.3562C46.4198 73.5433 46.4755 73.4955 46.5126 73.4287C46.5524 73.3379 46.5762 73.2471 46.5656 73.1324C46.4118 69.9218 45.2346 68.4264 42.8458 68.4264Z" fill="white"/>
</svg>
