<svg width="20" height="20" viewBox="0 0 20 20" fill="none" xmlns="http://www.w3.org/2000/svg">
<path d="M6.66659 8.33332H13.3333M6.66659 15H13.3333M6.66659 11.6667H9.99992M3.33325 17.8333V2.16666C3.33325 2.03405 3.38593 1.90687 3.4797 1.8131C3.57347 1.71933 3.70064 1.66666 3.83325 1.66666H13.5433C13.6758 1.66677 13.8029 1.71953 13.8966 1.81332L16.5199 4.43666C16.5666 4.48324 16.6035 4.53859 16.6287 4.59951C16.6539 4.66044 16.6667 4.72574 16.6666 4.79166V17.8333C16.6666 17.899 16.6537 17.964 16.6285 18.0247C16.6034 18.0853 16.5666 18.1404 16.5201 18.1869C16.4737 18.2333 16.4186 18.2701 16.3579 18.2953C16.2973 18.3204 16.2322 18.3333 16.1666 18.3333H3.83325C3.76759 18.3333 3.70257 18.3204 3.64191 18.2953C3.58125 18.2701 3.52613 18.2333 3.4797 18.1869C3.43327 18.1404 3.39644 18.0853 3.37131 18.0247C3.34618 17.964 3.33325 17.899 3.33325 17.8333Z" stroke="white" stroke-width="1.25" stroke-linecap="round" stroke-linejoin="round"/>
<path d="M13.3333 1.66666V4.49999C13.3333 4.6326 13.3859 4.75977 13.4797 4.85354C13.5735 4.94731 13.7006 4.99999 13.8333 4.99999H16.6666" stroke="white" stroke-width="1.25" stroke-linecap="round" stroke-linejoin="round"/>
</svg>
