<svg width="70" height="80" viewBox="0 0 58 95" fill="none" xmlns="http://www.w3.org/2000/svg">
<path d="M25.8661 39.6673C24.877 40.4977 24.0794 41.7357 23.5743 43.225C23.0691 44.7143 22.879 46.3878 23.0281 48.0341C23.1772 49.6804 23.6587 51.2255 24.4118 52.4739C25.1648 53.7224 26.1556 54.6182 27.2589 55.0481C28.3622 55.478 29.5283 55.4227 30.6099 54.8891C31.6916 54.3555 32.6401 53.3677 33.3355 52.0505C34.031 50.7333 34.4422 49.1458 34.5171 47.4889C34.592 45.832 34.3273 44.18 33.7564 42.7418C33.3772 41.7867 32.8724 40.9495 32.2706 40.278C31.6689 39.6066 30.982 39.114 30.2493 38.8285C29.5166 38.543 28.7524 38.4701 28.0003 38.6141C27.2483 38.758 26.523 39.1159 25.8661 39.6673ZM51.7519 48.778C51.3725 48.148 50.9726 47.5165 50.5522 46.8834C50.8454 46.4321 51.13 45.9824 51.4059 45.5342C56.596 37.0536 58.7884 28.5447 56.7577 23.4347C54.811 18.5315 49.0194 17.0695 41.7662 19.1191C41.0527 19.3228 40.3423 19.5516 39.6352 19.8055C39.4994 19.1285 39.3561 18.4547 39.2051 17.784C36.7443 7.00455 32.7701 -0.00469867 28.7086 2.36324e-06C24.8152 2.36324e-06 21.0512 6.56735 18.6485 16.7263C18.4114 17.7292 18.1926 18.7383 17.9921 19.7538C17.52 19.5845 17.0457 19.4278 16.5692 19.2837C8.91831 17.0037 2.75811 18.508 0.730575 23.6274C-1.21288 28.5306 0.817885 36.5553 5.67167 44.6504C6.15457 45.4496 6.6504 46.2331 7.15917 47.001C6.5577 47.8942 5.99181 48.7921 5.46148 49.6853C0.724109 57.6676 -1.19024 65.556 0.749978 70.4403C2.75487 75.4892 8.82776 77.1393 16.2232 75.0238C16.8225 74.8515 17.4186 74.6572 18.0115 74.4409C18.2271 75.541 18.4653 76.6332 18.7261 77.7175C21.1191 87.6696 24.8604 94.0207 28.7409 94.0207C32.7507 94.0207 36.7669 87.1901 39.2019 76.8196C39.3959 76.0017 39.5738 75.1508 39.7484 74.2764C40.5137 74.5522 41.2844 74.7966 42.0605 75.0097C49.1843 76.9701 54.8401 75.4328 56.7771 70.5438C58.7787 65.4901 56.7124 57.0189 51.7519 48.778ZM3.12351 25.6301C4.37172 22.4804 9.40659 21.2487 16.013 23.2231C16.4356 23.3485 16.8657 23.4895 17.3033 23.6462C16.6575 27.7942 16.2016 31.9999 15.9387 36.2356C13.5563 38.6711 11.2847 41.328 9.1382 44.1897C8.66608 43.4783 8.20581 42.7497 7.75741 42.0038C3.59563 35.0744 1.95292 28.587 3.12351 25.6301ZM15.6929 52.5576C14.0437 50.7383 12.5077 48.8767 11.114 47.0057C12.5045 45.1441 14.0405 43.2918 15.6897 41.4772C15.6293 43.3232 15.6002 45.1707 15.6024 47.0198C15.6024 48.8688 15.6325 50.7148 15.6929 52.5576ZM15.6929 71.0797C12.89 71.9872 9.99614 72.137 7.15594 71.5216C6.37731 71.4331 5.61944 71.1133 4.92919 70.582C4.23895 70.0508 3.63099 69.3194 3.14292 68.433C1.96262 65.4713 3.50186 59.1343 7.55368 52.3084C8.06245 51.4528 8.58847 50.6192 9.13173 49.8075C11.2792 52.6869 13.5553 55.3566 15.9451 57.7992C16.2107 62.0884 16.6709 66.3475 17.3227 70.5485C16.7837 70.7459 16.2394 70.9245 15.6897 71.0844L15.6929 71.0797ZM38.6522 33.288C37.5678 32.2946 36.4705 31.334 35.3603 30.4063C34.2651 29.4912 33.1581 28.6089 32.0393 27.7596C33.8787 26.6302 35.7555 25.6339 37.6627 24.7745C38.0908 27.5863 38.421 30.4278 38.6522 33.288ZM21.2646 18.0285C23.3212 9.33156 26.3674 4.01939 28.715 4.01939C31.2147 4.01469 34.4613 9.74525 36.5859 19.0486C36.7238 19.6566 36.8532 20.2677 36.9739 20.882C34.1849 22.1385 31.4562 23.6619 28.8056 25.442C26.1637 23.6401 23.4412 22.0993 20.6566 20.8303C20.8442 19.8901 21.0468 18.9561 21.2646 18.0285ZM19.9711 24.7228C21.8696 25.5914 23.7367 26.5987 25.5654 27.7408C23.2975 29.4395 21.09 31.2901 18.9428 33.2927C19.2015 30.2935 19.5475 27.4211 19.9711 24.7228ZM18.946 60.7327C20.0174 61.7324 21.105 62.693 22.2088 63.6144C23.3341 64.5546 24.4735 65.4572 25.6268 66.3222C23.785 67.5039 21.9027 68.5473 19.9873 69.4484C19.5422 66.5713 19.1947 63.6641 18.946 60.7374V60.7327ZM36.5891 75.5222C35.7288 79.5041 34.3717 83.2218 32.5858 86.4897C32.1448 87.4265 31.5764 88.2218 30.9156 88.8267C30.2549 89.4315 29.5158 89.8329 28.7441 90.006C26.3868 90.006 23.3826 84.9054 21.339 76.3918C21.0975 75.3858 20.8755 74.3704 20.6728 73.3456C23.4706 72.0336 26.2039 70.4472 28.8541 68.5975C31.5272 70.3921 34.2786 71.9295 37.0903 73.1998C36.9351 73.9802 36.768 74.7543 36.5891 75.5222ZM37.7597 69.298C35.8276 68.4208 33.9261 67.4073 32.0619 66.2611C33.1592 65.4243 34.2641 64.539 35.3764 63.605C36.519 62.646 37.6314 61.6635 38.7136 60.6575C38.4975 63.5595 38.1791 66.4434 37.7597 69.298ZM39.2051 47.001C39.2051 49.8561 39.1437 52.708 39.0208 55.5569C37.4266 57.127 35.7451 58.6595 33.9957 60.1263C32.2495 61.5883 30.5259 62.9328 28.8314 64.1503C27.0486 62.9093 25.3002 61.571 23.5864 60.1357C21.8833 58.7097 20.219 57.1912 18.5935 55.5804C18.4426 52.7284 18.3672 49.8733 18.3672 47.0151C18.3672 44.16 18.4405 41.3064 18.5871 38.4545C21.8378 35.228 25.2515 32.3632 28.7991 29.8845C30.5582 31.1287 32.2861 32.4622 33.9827 33.8851C35.6858 35.3079 37.3565 36.8107 38.995 38.3934C39.1351 41.2579 39.2051 44.1271 39.2051 47.001ZM42.2966 23.0586C48.5117 21.3051 53.1941 22.4851 54.368 25.442C55.6194 28.5917 53.8279 35.5398 49.3428 42.8641C49.0949 43.2683 48.8383 43.6742 48.5732 44.0816C46.3887 41.2108 44.0724 38.5596 41.6401 36.1463C41.3952 31.9574 40.9577 27.7971 40.3305 23.6932C40.9988 23.455 41.6541 23.2435 42.2966 23.0586ZM41.8762 41.3221C43.5175 43.0636 45.0955 44.9277 46.6039 46.9069C45.1025 48.9179 43.5298 50.8135 41.8924 52.5858C41.9419 50.7242 41.9667 48.8626 41.9667 47.001C41.9667 45.108 41.9365 43.2151 41.8762 41.3221ZM54.3874 68.5364C53.2103 71.5028 48.6702 72.7391 42.5747 71.0656C41.8762 70.8744 41.1605 70.6456 40.4275 70.3792C41.0396 66.2223 41.4577 62.01 41.6789 57.771C44.1068 55.3171 46.4158 52.6234 48.5893 49.7088C48.9709 50.2823 49.3331 50.8527 49.6759 51.4199C51.6195 54.4924 53.1574 58.0588 54.2128 61.9409C54.5505 62.9645 54.7403 64.0779 54.7703 65.2123C54.8003 66.3468 54.67 67.4781 54.3874 68.5364Z" fill="white"/>
</svg>
