<svg width="70" height="80" viewBox="0 0 70 80" fill="none" xmlns="http://www.w3.org/2000/svg">
<path d="M35 0C39.5963 0 44.1475 1.03463 48.3939 3.04482C52.6403 5.05501 56.4987 8.00139 59.7487 11.7157C62.9988 15.4301 65.5769 19.8396 67.3358 24.6927C69.0947 29.5457 70 34.7471 70 40C70 50.6087 66.3125 60.7828 59.7487 68.2843C53.185 75.7857 44.2826 80 35 80C30.4037 80 25.8525 78.9654 21.6061 76.9552C17.3597 74.945 13.5013 71.9986 10.2513 68.2843C3.68749 60.7828 0 50.6087 0 40C0 29.3913 3.68749 19.2172 10.2513 11.7157C16.815 4.21427 25.7174 0 35 0ZM28 53.32C28.56 55.48 28.49 57.48 28 59.32C28 59.52 27.86 59.72 27.79 60C27.72 60 27.65 60.28 27.545 60.48C27.16 61.44 26.6 62.36 25.935 63.16C23.905 65.72 21 66.68 19.845 65.88C18.515 65 19.25 61.4 21.56 58.56C24.08 55.52 27.72 53.52 27.72 53.52L28 53.32ZM56.945 17.12C55.37 10 45.045 7.68 35.315 11.64C29.505 14 23.205 17.68 18.69 22.52C13.335 28.28 12.46 33.28 12.81 35.36C14 42.72 22.89 47.56 26.53 51.12V51.16C25.48 51.76 17.64 56.28 15.75 60.92C13.86 65.8 16.1 69.32 17.5 69.8C22.19 71.24 26.915 68.64 29.435 64.28C31.885 60.12 31.71 54.72 30.625 52C32.095 51.6 33.81 51.4 35.98 51.68C42.14 52.52 43.33 56.88 43.085 58.72C42.875 60.56 41.58 61.56 41.16 61.88C40.74 62.16 40.6 62.28 40.635 62.52C40.67 62.84 40.88 62.84 41.23 62.76C41.755 62.64 44.485 61.28 44.59 57.88C44.73 53.56 41.125 48.76 34.755 48.88C32.13 48.96 30.485 49.24 29.295 49.76L29.015 49.4C25.06 44.6 17.78 41.2 18.095 34.72C18.2 32.36 18.9 26.2 32.095 18.68C42.875 12.52 51.52 14.2 53.025 18C55.16 23.32 48.405 33.28 37.205 34.72C32.935 35.28 30.66 33.36 30.1 32.68C29.505 32 29.435 31.88 29.225 32C28.84 32.28 29.085 32.92 29.225 33.32C29.54 34.32 30.94 36 33.25 36.96C35.315 37.72 40.355 38.16 46.41 35.48C53.2 32.48 58.52 24.12 56.945 17.12Z" fill="white"/>
</svg>
